<svg xmlns="http://www.w3.org/2000/svg" viewBox="0 0 32 32" fill="none">
  <rect width="32" height="32" rx="8" fill="#16a34a"/>
  <path d="M16 6c-1.5 0-2.8.6-3.8 1.6C11.2 8.6 10.5 10 10.5 11.5c0 2 1 3.7 2.5 4.7v1.3c0 .3.1.5.3.7l2.5 2.5c.2.2.5.3.7.3s.5-.1.7-.3l2.5-2.5c.2-.2.3-.4.3-.7v-1.3c1.5-1 2.5-2.7 2.5-4.7 0-1.5-.7-2.9-1.7-3.9C19.3 6.6 17.5 6 16 6z" fill="white" opacity="0.9"/>
  <path d="M10 22c0-.5.4-1 1-1h10c.6 0 1 .5 1 1v2c0 .5-.4 1-1 1H11c-.6 0-1-.5-1-1v-2z" fill="white" opacity="0.7"/>
  <circle cx="16" cy="11" r="2" fill="#16a34a"/>
</svg>
