<svg xmlns="http://www.w3.org/2000/svg" viewBox="0 0 200 200" fill="none">
  <rect width="200" height="200" rx="24" fill="#f0fdf4"/>
  <rect x="40" y="40" width="120" height="120" rx="16" fill="#16a34a" opacity="0.1"/>
  <path d="M100 60c-8 0-15 3-20 8s-8 12-8 20c0 11 5 20 13 25v7c0 2 1 3 2 4l13 13c1 1 3 2 4 2s3-1 4-2l13-13c1-1 2-2 2-4v-7c8-5 13-14 13-25 0-8-3-15-8-20s-12-8-20-8z" fill="#16a34a" opacity="0.6"/>
  <circle cx="100" cy="85" r="10" fill="#16a34a"/>
  <rect x="70" y="145" width="60" height="12" rx="6" fill="#16a34a" opacity="0.4"/>
</svg>
